<svg id="visual" viewBox="0 0 900 675" width="900" height="675" xmlns="http://www.w3.org/2000/svg" xmlns:xlink="http://www.w3.org/1999/xlink" version="1.1"><g stroke-width="1" stroke-linejoin="bevel"><path d="M480 383.7L517 470.1L614 391.7Z" fill="#8da5b0" stroke="#8da5b0"></path><path d="M517 470.1L607 507.1L614 391.7Z" fill="#304650" stroke="#304650"></path><path d="M607 507.1L667 401.7L614 391.7Z" fill="#000000" stroke="#000000"></path><path d="M574 269.3L480 383.7L614 391.7Z" fill="#dbf4ff" stroke="#dbf4ff"></path><path d="M574 269.3L496 277.3L480 383.7Z" fill="#465d66" stroke="#465d66"></path><path d="M715 301.3L574 269.3L614 391.7Z" fill="#061d25" stroke="#061d25"></path><path d="M480 383.7L427 515.1L517 470.1Z" fill="#061d25" stroke="#061d25"></path><path d="M517 470.1L497 574.6L607 507.1Z" fill="#c0d9e4" stroke="#c0d9e4"></path><path d="M373 360.7L427 515.1L480 383.7Z" fill="#dbf4ff" stroke="#dbf4ff"></path><path d="M427 515.1L497 574.6L517 470.1Z" fill="#dbf4ff" stroke="#dbf4ff"></path><path d="M378 304.3L373 360.7L480 383.7Z" fill="#5d747e" stroke="#5d747e"></path><path d="M692 585.6L717 475.1L607 507.1Z" fill="#304650" stroke="#304650"></path><path d="M607 507.1L717 475.1L667 401.7Z" fill="#000000" stroke="#000000"></path><path d="M497 574.6L613 580.6L607 507.1Z" fill="#465d66" stroke="#465d66"></path><path d="M496 277.3L378 304.3L480 383.7Z" fill="#000000" stroke="#000000"></path><path d="M832 407.7L715 301.3L667 401.7Z" fill="#a7bfc9" stroke="#a7bfc9"></path><path d="M667 401.7L715 301.3L614 391.7Z" fill="#758c96" stroke="#758c96"></path><path d="M276 303.3L334 397.7L373 360.7Z" fill="#8da5b0" stroke="#8da5b0"></path><path d="M373 360.7L334 397.7L427 515.1Z" fill="#a7bfc9" stroke="#a7bfc9"></path><path d="M574 269.3L473 203.9L496 277.3Z" fill="#5d747e" stroke="#5d747e"></path><path d="M496 277.3L426 212.9L378 304.3Z" fill="#8da5b0" stroke="#8da5b0"></path><path d="M590 190.9L473 203.9L574 269.3Z" fill="#465d66" stroke="#465d66"></path><path d="M427 515.1L404 574.6L497 574.6Z" fill="#465d66" stroke="#465d66"></path><path d="M497 574.6L579 675L613 580.6Z" fill="#c0d9e4" stroke="#c0d9e4"></path><path d="M301 543.6L404 574.6L427 515.1Z" fill="#304650" stroke="#304650"></path><path d="M715 301.3L590 190.9L574 269.3Z" fill="#8da5b0" stroke="#8da5b0"></path><path d="M473 203.9L426 212.9L496 277.3Z" fill="#465d66" stroke="#465d66"></path><path d="M613 580.6L692 585.6L607 507.1Z" fill="#c0d9e4" stroke="#c0d9e4"></path><path d="M701 675L692 585.6L613 580.6Z" fill="#dbf4ff" stroke="#dbf4ff"></path><path d="M468 675L579 675L497 574.6Z" fill="#758c96" stroke="#758c96"></path><path d="M404 574.6L468 675L497 574.6Z" fill="#758c96" stroke="#758c96"></path><path d="M277 500.1L301 543.6L427 515.1Z" fill="#758c96" stroke="#758c96"></path><path d="M404 574.6L419 675L468 675Z" fill="#304650" stroke="#304650"></path><path d="M334 397.7L277 500.1L427 515.1Z" fill="#000000" stroke="#000000"></path><path d="M222 377.7L277 500.1L334 397.7Z" fill="#5d747e" stroke="#5d747e"></path><path d="M818 515.1L832 407.7L717 475.1Z" fill="#061d25" stroke="#061d25"></path><path d="M717 475.1L832 407.7L667 401.7Z" fill="#1b313a" stroke="#1b313a"></path><path d="M288 201.9L276 303.3L378 304.3Z" fill="#758c96" stroke="#758c96"></path><path d="M378 304.3L276 303.3L373 360.7Z" fill="#dbf4ff" stroke="#dbf4ff"></path><path d="M807 607.6L818 515.1L692 585.6Z" fill="#c0d9e4" stroke="#c0d9e4"></path><path d="M692 585.6L818 515.1L717 475.1Z" fill="#061d25" stroke="#061d25"></path><path d="M278 675L419 675L404 574.6Z" fill="#1b313a" stroke="#1b313a"></path><path d="M815 270.3L725 166.9L715 301.3Z" fill="#061d25" stroke="#061d25"></path><path d="M715 301.3L725 166.9L590 190.9Z" fill="#304650" stroke="#304650"></path><path d="M505 75.4L430 105.4L473 203.9Z" fill="#8da5b0" stroke="#8da5b0"></path><path d="M832 407.7L815 270.3L715 301.3Z" fill="#061d25" stroke="#061d25"></path><path d="M579 675L701 675L613 580.6Z" fill="#a7bfc9" stroke="#a7bfc9"></path><path d="M473 203.9L430 105.4L426 212.9Z" fill="#758c96" stroke="#758c96"></path><path d="M426 212.9L288 201.9L378 304.3Z" fill="#1b313a" stroke="#1b313a"></path><path d="M505 75.4L473 203.9L590 190.9Z" fill="#8da5b0" stroke="#8da5b0"></path><path d="M276 303.3L222 377.7L334 397.7Z" fill="#dbf4ff" stroke="#dbf4ff"></path><path d="M305 120.4L288 201.9L426 212.9Z" fill="#758c96" stroke="#758c96"></path><path d="M276 303.3L200 264.3L222 377.7Z" fill="#000000" stroke="#000000"></path><path d="M701 675L807 607.6L692 585.6Z" fill="#758c96" stroke="#758c96"></path><path d="M900 477.1L900 386.7L832 407.7Z" fill="#c0d9e4" stroke="#c0d9e4"></path><path d="M587 71.4L505 75.4L590 190.9Z" fill="#304650" stroke="#304650"></path><path d="M815 270.3L785 168.9L725 166.9Z" fill="#304650" stroke="#304650"></path><path d="M716 107.4L587 71.4L590 190.9Z" fill="#304650" stroke="#304650"></path><path d="M716 107.4L590 190.9L725 166.9Z" fill="#758c96" stroke="#758c96"></path><path d="M785 168.9L716 107.4L725 166.9Z" fill="#000000" stroke="#000000"></path><path d="M900 477.1L832 407.7L818 515.1Z" fill="#8da5b0" stroke="#8da5b0"></path><path d="M832 407.7L900 300.3L815 270.3Z" fill="#8da5b0" stroke="#8da5b0"></path><path d="M815 270.3L900 215.9L785 168.9Z" fill="#000000" stroke="#000000"></path><path d="M900 550.6L900 477.1L818 515.1Z" fill="#1b313a" stroke="#1b313a"></path><path d="M900 386.7L900 300.3L832 407.7Z" fill="#758c96" stroke="#758c96"></path><path d="M288 201.9L200 264.3L276 303.3Z" fill="#061d25" stroke="#061d25"></path><path d="M329 0L305 120.4L430 105.4Z" fill="#000000" stroke="#000000"></path><path d="M430 105.4L305 120.4L426 212.9Z" fill="#304650" stroke="#304650"></path><path d="M288 201.9L178 197.9L200 264.3Z" fill="#1b313a" stroke="#1b313a"></path><path d="M301 543.6L278 675L404 574.6Z" fill="#5d747e" stroke="#5d747e"></path><path d="M202 584.6L278 675L301 543.6Z" fill="#1b313a" stroke="#1b313a"></path><path d="M202 584.6L301 543.6L277 500.1Z" fill="#000000" stroke="#000000"></path><path d="M202 584.6L277 500.1L166 501.1Z" fill="#061d25" stroke="#061d25"></path><path d="M900 675L900 550.6L807 607.6Z" fill="#1b313a" stroke="#1b313a"></path><path d="M807 607.6L900 550.6L818 515.1Z" fill="#a7bfc9" stroke="#a7bfc9"></path><path d="M701 675L822 675L807 607.6Z" fill="#000000" stroke="#000000"></path><path d="M166 501.1L277 500.1L222 377.7Z" fill="#5d747e" stroke="#5d747e"></path><path d="M88 402.7L166 501.1L222 377.7Z" fill="#000000" stroke="#000000"></path><path d="M900 64.4L783 89.4L785 168.9Z" fill="#061d25" stroke="#061d25"></path><path d="M785 168.9L783 89.4L716 107.4Z" fill="#304650" stroke="#304650"></path><path d="M666 0L589 0L587 71.4Z" fill="#465d66" stroke="#465d66"></path><path d="M900 300.3L900 215.9L815 270.3Z" fill="#304650" stroke="#304650"></path><path d="M587 71.4L589 0L505 75.4Z" fill="#1b313a" stroke="#1b313a"></path><path d="M505 75.4L480 0L430 105.4Z" fill="#8da5b0" stroke="#8da5b0"></path><path d="M666 0L587 71.4L716 107.4Z" fill="#dbf4ff" stroke="#dbf4ff"></path><path d="M589 0L480 0L505 75.4Z" fill="#dbf4ff" stroke="#dbf4ff"></path><path d="M181 98.4L178 197.9L288 201.9Z" fill="#dbf4ff" stroke="#dbf4ff"></path><path d="M200 264.3L133 278.3L222 377.7Z" fill="#061d25" stroke="#061d25"></path><path d="M181 98.4L288 201.9L305 120.4Z" fill="#1b313a" stroke="#1b313a"></path><path d="M783 89.4L666 0L716 107.4Z" fill="#c0d9e4" stroke="#c0d9e4"></path><path d="M480 0L420 0L430 105.4Z" fill="#304650" stroke="#304650"></path><path d="M178 197.9L133 278.3L200 264.3Z" fill="#465d66" stroke="#465d66"></path><path d="M822 675L900 675L807 607.6Z" fill="#061d25" stroke="#061d25"></path><path d="M133 278.3L88 402.7L222 377.7Z" fill="#000000" stroke="#000000"></path><path d="M66 605.6L167 675L202 584.6Z" fill="#465d66" stroke="#465d66"></path><path d="M420 0L329 0L430 105.4Z" fill="#1b313a" stroke="#1b313a"></path><path d="M85 516.1L202 584.6L166 501.1Z" fill="#758c96" stroke="#758c96"></path><path d="M202 584.6L167 675L278 675Z" fill="#a7bfc9" stroke="#a7bfc9"></path><path d="M88 402.7L85 516.1L166 501.1Z" fill="#1b313a" stroke="#1b313a"></path><path d="M219 0L181 98.4L305 120.4Z" fill="#5d747e" stroke="#5d747e"></path><path d="M178 197.9L67 225.9L133 278.3Z" fill="#758c96" stroke="#758c96"></path><path d="M0 259.3L0 390.7L88 402.7Z" fill="#5d747e" stroke="#5d747e"></path><path d="M900 64.4L816 0L783 89.4Z" fill="#5d747e" stroke="#5d747e"></path><path d="M783 89.4L816 0L666 0Z" fill="#465d66" stroke="#465d66"></path><path d="M900 215.9L900 64.4L785 168.9Z" fill="#758c96" stroke="#758c96"></path><path d="M74 82.4L67 225.9L178 197.9Z" fill="#000000" stroke="#000000"></path><path d="M0 548.6L66 605.6L85 516.1Z" fill="#1b313a" stroke="#1b313a"></path><path d="M0 476.1L85 516.1L88 402.7Z" fill="#465d66" stroke="#465d66"></path><path d="M85 516.1L66 605.6L202 584.6Z" fill="#dbf4ff" stroke="#dbf4ff"></path><path d="M329 0L219 0L305 120.4Z" fill="#8da5b0" stroke="#8da5b0"></path><path d="M0 172.9L0 259.3L67 225.9Z" fill="#000000" stroke="#000000"></path><path d="M900 64.4L900 0L816 0Z" fill="#304650" stroke="#304650"></path><path d="M66 605.6L73 675L167 675Z" fill="#061d25" stroke="#061d25"></path><path d="M0 259.3L88 402.7L133 278.3Z" fill="#8da5b0" stroke="#8da5b0"></path><path d="M66 605.6L0 675L73 675Z" fill="#1b313a" stroke="#1b313a"></path><path d="M0 390.7L0 476.1L88 402.7Z" fill="#8da5b0" stroke="#8da5b0"></path><path d="M0 476.1L0 548.6L85 516.1Z" fill="#a7bfc9" stroke="#a7bfc9"></path><path d="M67 225.9L0 259.3L133 278.3Z" fill="#061d25" stroke="#061d25"></path><path d="M74 82.4L178 197.9L181 98.4Z" fill="#758c96" stroke="#758c96"></path><path d="M71 0L74 82.4L181 98.4Z" fill="#758c96" stroke="#758c96"></path><path d="M74 82.4L0 172.9L67 225.9Z" fill="#304650" stroke="#304650"></path><path d="M0 548.6L0 675L66 605.6Z" fill="#1b313a" stroke="#1b313a"></path><path d="M219 0L71 0L181 98.4Z" fill="#c0d9e4" stroke="#c0d9e4"></path><path d="M74 82.4L0 91.4L0 172.9Z" fill="#8da5b0" stroke="#8da5b0"></path><path d="M0 0L0 91.4L74 82.4Z" fill="#8da5b0" stroke="#8da5b0"></path><path d="M71 0L0 0L74 82.4Z" fill="#061d25" stroke="#061d25"></path></g></svg>